<svg xmlns="http://www.w3.org/2000/svg" viewBox="0 0 96.84 59.54"><defs><style>.a{fill:none;stroke:#fff;stroke-miterlimit:10;}.b{fill:#fff;}.c{fill:#e84929;}</style></defs><title>logo6_1</title><polyline class="a" points="44.41 44.23 31.02 58.83 0.71 31.02 28.52 0.71 43.89 14.81"/><path class="b" d="M41.07,33.41,40,36.29H36.8l5.1-12.68h4l5.37,12.68H47.89l-1.18-2.88ZM45.85,31c-1.18-2.91-1.75-4.39-2.06-5.36h0c-.28.95-1,2.88-1.91,5.36Z"/><path class="b" d="M52.87,36.29V23.61h3.64c3.57,5.44,5,7.42,5.78,8.92h0c-.12-1.33-.11-3.7-.11-5.79V23.61H65V36.29H61.63c-1.2-1.89-5.26-8.19-6-9.64h0c.11,1.57.11,3.37.11,5.62v4Z"/><path class="c" d="M80.81,36.29H78.57a12.12,12.12,0,0,1-.2-1.3c-.8,1-1.89,1.57-4.28,1.57-4.1,0-6.39-2.83-6.39-6.54s2.43-6.68,7-6.68c4.07,0,5.83,2.21,6.16,4.06h-3.1c-.25-.64-1-1.74-3.06-1.74-2.6,0-3.73,1.85-3.73,4.21s1.18,4.35,3.76,4.35c2.15,0,3.13-1.11,3.13-2.63v-.2H74.74V29h6.07Z"/><path class="b" d="M96.84,29.91c0,3.51-2.35,6.65-7,6.65a6.35,6.35,0,0,1-6.76-6.64A6.53,6.53,0,0,1,90,23.34,6.4,6.4,0,0,1,96.84,29.91Zm-10.47,0c0,2.4,1.21,4.28,3.68,4.28s3.54-2.16,3.54-4.22c0-2.25-1.09-4.2-3.66-4.2S86.37,27.74,86.37,29.88Z"/><polyline class="a" points="52.11 44.23 38.72 58.83 8.41 31.02 36.22 0.71 51.59 14.81"/></svg>