<?xml version="1.0" encoding="utf-8"?>
<!-- Generator: Adobe Illustrator 19.0.0, SVG Export Plug-In . SVG Version: 6.00 Build 0)  -->
<svg version="1.1" id="Layer_1" xmlns="http://www.w3.org/2000/svg" xmlns:xlink="http://www.w3.org/1999/xlink" x="0px" y="0px"
	 viewBox="-536 650.6 60 60" style="enable-background:new -536 650.6 60 60;" xml:space="preserve">
<style type="text/css">
	.st0{fill:#121517;}
</style>
<path id="XMLID_26_" class="st0" d="M-532.1,661.2v4c0-0.2,0.1-0.4,0.3-0.5l-3.2,2.6c-0.2,0.1-0.3,0.3-0.3,0.5
	c0,0.2,0.1,0.4,0.3,0.5l3.2,2.6c-0.2-0.1-0.3-0.3-0.3-0.5v3.8c0,0.4,0.3,0.7,0.7,0.7h41.1c0.4,0,0.7-0.3,0.7-0.7v-13
	c0-0.4-0.3-0.7-0.7-0.7h-41.1C-531.8,660.5-532.1,660.8-532.1,661.2z M-491.1,661.2v13c0-0.4,0.3-0.7,0.7-0.7h-41.1
	c0.4,0,0.7,0.3,0.7,0.7v-3.8c0-0.2-0.1-0.4-0.3-0.5l-3.2-2.6c0.2,0.1,0.3,0.3,0.3,0.5c0,0.2-0.1,0.4-0.3,0.5l3.2-2.6
	c0.2-0.1,0.3-0.3,0.3-0.5v-4c0,0.4-0.3,0.7-0.7,0.7h41.1C-490.8,661.9-491.1,661.6-491.1,661.2z"/>
<path id="XMLID_23_" class="st0" d="M-480.7,686.9v-9.2c0-0.4-0.3-0.7-0.7-0.7h-41.1c-0.4,0-0.7,0.3-0.7,0.7v23.8
	c0,0.4,0.3,0.7,0.7,0.7h41.1c0.4,0,0.7-0.3,0.7-0.7v-9.4c0,0.2-0.1,0.4-0.3,0.5l3.2-2.6c0.2-0.1,0.3-0.3,0.3-0.5s-0.1-0.4-0.3-0.5
	l-3.2-2.6C-480.8,686.5-480.7,686.7-480.7,686.9z M-478.6,688.9l-3.2,2.6c-0.2,0.1-0.3,0.3-0.3,0.5v9.4c0-0.4,0.3-0.7,0.7-0.7h-41.1
	c0.4,0,0.7,0.3,0.7,0.7v-23.8c0,0.4-0.3,0.7-0.7,0.7h41.1c-0.4,0-0.7-0.3-0.7-0.7v9.2c0,0.2,0.1,0.4,0.3,0.5l3.2,2.6
	c-0.2-0.1-0.3-0.3-0.3-0.5S-478.8,689.1-478.6,688.9z"/>
<path id="XMLID_16_" class="st0" d="M-510,669.2h-14.1c-0.4,0-0.7,0.3-0.7,0.7s0.3,0.7,0.7,0.7h14.1c0.4,0,0.7-0.3,0.7-0.7
	S-509.7,669.2-510,669.2z M-504.8,669.2h-2.3c-0.4,0-0.7,0.3-0.7,0.7s0.3,0.7,0.7,0.7h2.3c0.4,0,0.7-0.3,0.7-0.7
	S-504.4,669.2-504.8,669.2z M-496.9,669.2h-4.6c-0.4,0-0.7,0.3-0.7,0.7s0.3,0.7,0.7,0.7h4.6c0.4,0,0.7-0.3,0.7-0.7
	S-496.5,669.2-496.9,669.2z M-524.2,666.9c0.4,0,0.7-0.3,0.7-0.7s-0.3-0.7-0.7-0.7c-0.4,0-0.7,0.3-0.7,0.7S-524.6,666.9-524.2,666.9
	z M-520.6,666.9c0.4,0,0.7-0.3,0.7-0.7s-0.3-0.7-0.7-0.7c-0.4,0-0.7,0.3-0.7,0.7S-520.9,666.9-520.6,666.9z M-516.9,666.9
	c0.4,0,0.7-0.3,0.7-0.7s-0.3-0.7-0.7-0.7c-0.4,0-0.7,0.3-0.7,0.7S-517.3,666.9-516.9,666.9z"/>
<path id="XMLID_5_" class="st0" d="M-500.8,686.1h12.6c0.4,0,0.7-0.3,0.7-0.7s-0.3-0.7-0.7-0.7h-12.6c-0.4,0-0.7,0.3-0.7,0.7
	S-501.2,686.1-500.8,686.1z M-488.2,688.3h-6.6c-0.4,0-0.7,0.3-0.7,0.7s0.3,0.7,0.7,0.7h6.6c0.4,0,0.7-0.3,0.7-0.7
	S-487.9,688.3-488.2,688.3z M-502.4,689.6h4.5c0.4,0,0.7-0.3,0.7-0.7s-0.3-0.7-0.7-0.7h-4.5c-0.4,0-0.7,0.3-0.7,0.7
	S-502.7,689.6-502.4,689.6z M-488.2,691.9h-14.1c-0.4,0-0.7,0.3-0.7,0.7s0.3,0.7,0.7,0.7h14.1c0.4,0,0.7-0.3,0.7-0.7
	S-487.9,691.9-488.2,691.9z M-488.2,695.4h-5.1c-0.4,0-0.7,0.3-0.7,0.7s0.3,0.7,0.7,0.7h5.1c0.4,0,0.7-0.3,0.7-0.7
	S-487.9,695.4-488.2,695.4z M-496.3,695.4h-4.1c-0.4,0-0.7,0.3-0.7,0.7s0.3,0.7,0.7,0.7h4.1c0.4,0,0.7-0.3,0.7-0.7
	S-495.9,695.4-496.3,695.4z M-503.7,695.4h-15.4c-0.4,0-0.7,0.3-0.7,0.7s0.3,0.7,0.7,0.7h15.4c0.4,0,0.7-0.3,0.7-0.7
	S-503.3,695.4-503.7,695.4z M-502.4,682.3c0.4,0,0.7-0.3,0.7-0.7s-0.3-0.7-0.7-0.7c-0.4,0-0.7,0.3-0.7,0.7S-502.7,682.3-502.4,682.3
	z M-498.7,682.3c0.4,0,0.7-0.3,0.7-0.7s-0.3-0.7-0.7-0.7c-0.4,0-0.7,0.3-0.7,0.7S-499.1,682.3-498.7,682.3z M-495.1,682.3
	c0.4,0,0.7-0.3,0.7-0.7s-0.3-0.7-0.7-0.7c-0.4,0-0.7,0.3-0.7,0.7S-495.5,682.3-495.1,682.3z"/>
<path id="XMLID_4_" class="st0" d="M-504.6,692.3h-14.1c-0.4,0-0.7,0.3-0.7,0.7s0.3,0.7,0.7,0.7h14.1c0.4,0,0.7-0.3,0.7-0.7
	S-504.2,692.3-504.6,692.3z"/>
<path id="XMLID_3_" class="st0" d="M-504.6,687.8h-14.1c-0.4,0-0.7,0.3-0.7,0.7s0.3,0.7,0.7,0.7h14.1c0.4,0,0.7-0.3,0.7-0.7
	S-504.2,687.8-504.6,687.8z"/>
<path id="XMLID_2_" class="st0" d="M-504.6,683.2h-14.1c-0.4,0-0.7,0.3-0.7,0.7s0.3,0.7,0.7,0.7h14.1c0.4,0,0.7-0.3,0.7-0.7
	S-504.2,683.2-504.6,683.2z"/>
</svg>
