<?xml version="1.0" encoding="utf-8"?>
<!-- Generator: Adobe Illustrator 19.0.0, SVG Export Plug-In . SVG Version: 6.00 Build 0)  -->
<svg version="1.1" id="Layer_1" xmlns="http://www.w3.org/2000/svg" xmlns:xlink="http://www.w3.org/1999/xlink" x="0px" y="0px"
	 viewBox="0 0 60 60" style="enable-background:new 0 0 60 60;" xml:space="preserve">
<style type="text/css">
	.st0{fill:#111416;}
</style>
<g id="XMLID_358_">
	<path id="XMLID_310_" class="st0" d="M37.8,45h-20c0.4,0,0.7,0.3,0.7,0.7v-5.4l0,0c0-0.4-0.3-0.7-0.7-0.7c-0.4,0-0.7,0.3-0.7,0.7
		l0,0v5.4c0,0.4,0.3,0.7,0.7,0.7h20l0,0c0.4,0,0.7-0.3,0.7-0.7C38.5,45.3,38.2,45,37.8,45L37.8,45z"/>
	<path id="XMLID_309_" class="st0" d="M18.5,24.3V1.7c0,0.4-0.3,0.7-0.7,0.7h21.9c-0.4,0-0.7-0.3-0.7-0.7v29.7l0,0
		c0,0.4,0.3,0.7,0.7,0.7s0.7-0.3,0.7-0.7l0,0V1.7c0-0.4-0.3-0.7-0.7-0.7H17.8c-0.4,0-0.7,0.3-0.7,0.7v22.6l0,0
		c0,0.4,0.3,0.7,0.7,0.7C18.2,25,18.5,24.7,18.5,24.3L18.5,24.3z"/>
	<path id="XMLID_307_" class="st0" d="M17.8,5h21.9l0,0c0.4,0,0.7-0.3,0.7-0.7c0-0.4-0.3-0.7-0.7-0.7l0,0H17.8l0,0
		c-0.4,0-0.7,0.3-0.7,0.7C17.1,4.7,17.4,5,17.8,5L17.8,5z"/>
	<path id="XMLID_306_" class="st0" d="M26.2,44.3h5.2l0,0c0.4,0,0.7-0.3,0.7-0.7c0-0.4-0.3-0.7-0.7-0.7l0,0h-5.2l0,0
		c-0.4,0-0.7,0.3-0.7,0.7C25.5,44,25.8,44.3,26.2,44.3L26.2,44.3z"/>
	<path id="XMLID_304_" class="st0" d="M17.8,42.2h20.1l0,0c0.4,0,0.7-0.3,0.7-0.7c0-0.4-0.3-0.7-0.7-0.7l0,0H17.8l0,0
		c-0.4,0-0.7,0.3-0.7,0.7C17.1,41.9,17.4,42.2,17.8,42.2L17.8,42.2z"/>
</g>
<g id="XMLID_342_">
	<path id="XMLID_303_" class="st0" d="M18.2,16.9c-1.2-0.8-2.9-0.7-3.9,0.4c-0.6,0.6-0.9,1.4-0.9,2.2c0,0.8,0.3,1.6,0.9,2.2l3.1,3.1
		l0,0c0.3,0.3,0.7,0.3,1,0c0.3-0.3,0.3-0.7,0-1l0,0l-3.1-3.1c-0.3-0.3-0.5-0.8-0.5-1.3c0-0.5,0.2-0.9,0.5-1.3
		c0.6-0.6,1.5-0.7,2.2-0.2l0,0c0.3,0.2,0.7,0.1,0.9-0.2C18.5,17.5,18.5,17.1,18.2,16.9L18.2,16.9z"/>
	<path id="XMLID_302_" class="st0" d="M18.3,45.6c0,3,2.1,6.7,4.7,6.7c-0.2,0-0.4-0.1-0.5-0.2c-0.1-0.1-0.2-0.3-0.2-0.5l0,4l0,0
		c0,0.4,0.3,0.7,0.7,0.7c0.4,0,0.7-0.3,0.7-0.7l0,0l0-4c0-0.2-0.1-0.4-0.2-0.5C23.3,51.1,23.2,51,23,51c-1.6,0-3.3-2.8-3.3-5.4l0,0
		c0-0.4-0.3-0.7-0.7-0.7C18.6,45,18.3,45.3,18.3,45.6L18.3,45.6z"/>
	<path id="XMLID_301_" class="st0" d="M38.6,55.7v-2.4c0,0.4-0.3,0.7-0.7,0.7c1.8,0,5-2.1,5-6.2v-0.9l0,0c0-0.4-0.3-0.7-0.7-0.7
		c-0.4,0-0.7,0.3-0.7,0.7l0,0v0.9c0,3.4-2.6,4.9-3.7,4.9c-0.4,0-0.7,0.3-0.7,0.7v2.4l0,0c0,0.4,0.3,0.7,0.7,0.7S38.6,56.1,38.6,55.7
		L38.6,55.7z"/>
	<path id="XMLID_300_" class="st0" d="M38.6,58.3v-2.6c0-0.4-0.3-0.7-0.7-0.7H23c-0.4,0-0.7,0.3-0.7,0.7v2.6l0,0
		c0,0.4,0.3,0.7,0.7,0.7c0.4,0,0.7-0.3,0.7-0.7l0,0v-2.6c0,0.4-0.3,0.7-0.7,0.7h14.9c-0.4,0-0.7-0.3-0.7-0.7v2.6l0,0
		c0,0.4,0.3,0.7,0.7,0.7S38.6,58.7,38.6,58.3L38.6,58.3z"/>
	<path id="XMLID_299_" class="st0" d="M42.9,46.9V30.8c0-0.4-0.3-0.7-0.7-0.7c-2.8,0-5,1.7-5,4v11.5l0,0c0,0.4,0.3,0.7,0.7,0.7
		s0.7-0.3,0.7-0.7l0,0V34.1c0-1.5,1.6-2.6,3.7-2.6c-0.4,0-0.7-0.3-0.7-0.7v16.1l0,0c0,0.4,0.3,0.7,0.7,0.7
		C42.6,47.6,42.9,47.3,42.9,46.9L42.9,46.9z"/>
	<path id="XMLID_350_" class="st0" d="M17.8,39.5c-1.1,0-2-0.9-2-2c0-1.1,0.9-2,2-2c1.1,0,2,0.9,2,2C19.7,38.7,18.9,39.5,17.8,39.5z
		 M21.1,37.6c0-1.8-1.5-3.3-3.3-3.3c-1.8,0-3.3,1.5-3.3,3.3c0,1.8,1.5,3.3,3.3,3.3C19.6,40.9,21.1,39.4,21.1,37.6z"/>
	<path id="XMLID_347_" class="st0" d="M17.8,34.2c-1.1,0-2-0.9-2-2c0-1.1,0.9-2,2-2c1.1,0,2,0.9,2,2C19.7,33.4,18.9,34.2,17.8,34.2z
		 M21.1,32.3c0-1.8-1.5-3.3-3.3-3.3c-1.8,0-3.3,1.5-3.3,3.3c0,1.8,1.5,3.3,3.3,3.3C19.6,35.6,21.1,34.1,21.1,32.3z"/>
	<path id="XMLID_344_" class="st0" d="M17.8,28.9c-1.1,0-2-0.9-2-2c0-1.1,0.9-2,2-2c1.1,0,2,0.9,2,2C19.7,28.1,18.9,28.9,17.8,28.9z
		 M21.1,27c0-1.8-1.5-3.3-3.3-3.3c-1.8,0-3.3,1.5-3.3,3.3c0,1.8,1.5,3.3,3.3,3.3C19.6,30.3,21.1,28.8,21.1,27z"/>
	<path id="XMLID_250_" class="st0" d="M29.5,45.6v2l0,0c0,0.4,0.3,0.7,0.7,0.7c0.4,0,0.7-0.3,0.7-0.7l0,0v-2l0,0
		c0-0.4-0.3-0.7-0.7-0.7C29.8,45,29.5,45.3,29.5,45.6L29.5,45.6z"/>
</g>
</svg>
