<svg width="512" height="512" viewBox="0 0 512 512" fill="none" xmlns="http://www.w3.org/2000/svg">
<path d="M414.281 168.5V244C414.281 253.676 429.281 253.676 429.281 244V168.5C429.281 158.824 414.281 158.824 414.281 168.5Z" fill="black"/>
<path d="M451.16 251.5C455.305 251.5 458.66 248.141 458.66 244V168.5C458.66 158.824 443.66 158.824 443.66 168.5V244C443.66 248.141 447.02 251.5 451.16 251.5Z" fill="black"/>
<path d="M262.898 89C258.758 89 255.398 92.3594 255.398 96.5V329.5C255.398 333.641 258.758 337 262.898 337C267.043 337 270.398 333.641 270.398 329.5V96.5C270.398 92.3594 267.039 89 262.898 89Z" fill="black"/>
<path d="M189.262 89C185.117 89 181.762 92.3594 181.762 96.5V329.5C181.762 333.641 185.117 337 189.262 337C193.402 337 196.762 333.641 196.762 329.5V96.5C196.762 92.3594 193.402 89 189.262 89Z" fill="black"/>
<path d="M227.148 89C223.004 89 219.648 92.3594 219.648 96.5V329.5C219.648 333.641 223.004 337 227.148 337C231.289 337 234.648 333.641 234.648 329.5V96.5C234.648 92.3594 231.289 89 227.148 89Z" fill="black"/>
<path d="M44.1172 408.82H135.898C145.57 408.82 145.57 393.82 135.898 393.82H44.1172C34.4414 393.82 34.4414 408.82 44.1172 408.82Z" fill="black"/>
<path d="M44.1172 440.625H135.898C145.57 440.625 145.57 425.625 135.898 425.625H44.1172C34.4414 425.625 34.4414 440.625 44.1172 440.625Z" fill="black"/>
<path d="M44.1172 472.434H135.898C145.57 472.434 145.57 457.434 135.898 457.434H44.1172C34.4414 457.434 34.4414 472.434 44.1172 472.434Z" fill="black"/>
<path d="M59.8438 152.113C50.1914 152.113 50.1758 167.113 59.8438 167.113C69.4922 167.113 69.5117 152.113 59.8438 152.113Z" fill="black"/>
<path d="M90.0078 152.113C80.3555 152.113 80.3398 167.113 90.0078 167.113C99.6602 167.113 99.6758 152.113 90.0078 152.113Z" fill="black"/>
<path d="M120.176 152.113C110.523 152.113 110.508 167.113 120.176 167.113C129.828 167.113 129.844 152.113 120.176 152.113Z" fill="black"/>
<path d="M59.8438 185.504C50.1914 185.504 50.1758 200.504 59.8438 200.504C69.4922 200.504 69.5117 185.504 59.8438 185.504Z" fill="black"/>
<path d="M90.0078 185.504C80.3555 185.504 80.3398 200.504 90.0078 200.504C99.6602 200.504 99.6758 185.504 90.0078 185.504Z" fill="black"/>
<path d="M120.176 185.504C110.523 185.504 110.508 200.504 120.176 200.504C129.828 200.504 129.844 185.504 120.176 185.504Z" fill="black"/>
<path d="M59.8438 218.895C50.1914 218.895 50.1758 233.895 59.8438 233.895C69.4922 233.895 69.5117 218.895 59.8438 218.895Z" fill="black"/>
<path d="M90.0078 218.895C80.3555 218.895 80.3398 233.895 90.0078 233.895C99.6602 233.895 99.6758 218.895 90.0078 218.895Z" fill="black"/>
<path d="M120.176 218.895C110.523 218.895 110.508 233.895 120.176 233.895C129.828 233.895 129.844 218.895 120.176 218.895Z" fill="black"/>
<path d="M59.8438 252.285C50.1914 252.285 50.1758 267.285 59.8438 267.285C69.4922 267.285 69.5117 252.285 59.8438 252.285Z" fill="black"/>
<path d="M90.0078 252.285C80.3555 252.285 80.3398 267.285 90.0078 267.285C99.6602 267.285 99.6758 252.285 90.0078 252.285Z" fill="black"/>
<path d="M120.176 252.285C110.523 252.285 110.508 267.285 120.176 267.285C129.828 267.285 129.844 252.285 120.176 252.285Z" fill="black"/>
<path d="M59.8438 285.676C50.1914 285.676 50.1758 300.676 59.8438 300.676C69.4922 300.676 69.5117 285.676 59.8438 285.676Z" fill="black"/>
<path d="M90.0078 285.676C80.3555 285.676 80.3398 300.676 90.0078 300.676C99.6602 300.676 99.6758 285.676 90.0078 285.676Z" fill="black"/>
<path d="M120.176 285.676C110.523 285.676 110.508 300.676 120.176 300.676C129.828 300.676 129.844 285.676 120.176 285.676Z" fill="black"/>
<path d="M59.8438 319.066C50.1914 319.066 50.1758 334.066 59.8438 334.066C69.4922 334.066 69.5117 319.066 59.8438 319.066Z" fill="black"/>
<path d="M90.0078 319.066C80.3555 319.066 80.3398 334.066 90.0078 334.066C99.6602 334.066 99.6758 319.066 90.0078 319.066Z" fill="black"/>
<path d="M120.176 319.066C110.523 319.066 110.508 334.066 120.176 334.066C129.828 334.066 129.844 319.066 120.176 319.066Z" fill="black"/>
<path d="M374.824 327.445C378.969 327.445 382.324 324.09 382.324 319.945V299.055C382.324 289.379 367.324 289.379 367.324 299.055V319.945C367.324 324.09 370.68 327.445 374.824 327.445Z" fill="black"/>
<path d="M337.473 376.445C341.613 376.445 344.973 373.09 344.973 368.945V299.5C344.98 289.426 330.016 289.277 329.973 299.5V368.945C329.973 373.09 333.328 376.445 337.473 376.445Z" fill="black"/>
<path d="M374.824 424C378.969 424 382.324 420.641 382.324 416.5V348.055C382.324 338.379 367.324 338.379 367.324 348.055V416.5C367.324 420.641 370.68 424 374.824 424Z" fill="black"/>
<path d="M337.473 425.445C341.613 425.445 344.973 422.09 344.973 417.945V397.055C344.973 387.379 329.973 387.379 329.973 397.055V417.945C329.973 422.09 333.328 425.445 337.473 425.445Z" fill="black"/>
<path d="M337.473 474.445C341.613 474.445 344.973 471.09 344.973 466.945V446.055C344.973 436.379 329.973 436.379 329.973 446.055V466.945C329.973 471.09 333.328 474.445 337.473 474.445Z" fill="black"/>
<path d="M374.824 474.445C378.969 474.445 382.324 471.09 382.324 466.945V446.055C382.324 436.379 367.324 436.379 367.324 446.055V466.945C367.324 471.09 370.68 474.445 374.824 474.445Z" fill="black"/>
<path d="M511.562 126.992L500.562 95.9922C499.5 93 496.668 91 493.492 91H479.41L445.039 33.168C443.688 30.8945 441.234 29.5 438.59 29.5H429.281V7.5C429.281 -2.17578 414.281 -2.17578 414.281 7.5V29.5H400.703C397.914 29.5 395.355 31.0508 394.059 33.5195L363.953 91H350.07C346.898 91 344.066 93 343.004 95.9922L332.004 126.992C330.309 131.773 334.082 137 339.07 137H350.516V206.344L306.684 169.508V56.5C306.684 52.3594 303.324 49 299.184 49H279.469V7.5C279.469 3.35938 276.113 0 271.969 0H180.188C176.047 0 172.688 3.35938 172.688 7.5V49H152.977C148.832 49 145.477 52.3594 145.477 56.5V113.539H130.477V39.5469C130.477 34.1328 124.496 30.4023 119.621 32.8398L53.6836 65.8398C51.1445 67.1133 49.5391 69.707 49.5391 72.5469V113.539H27.6914C23.5469 113.539 20.1914 116.898 20.1914 121.039V355.254H8.5C4.35547 355.254 1 358.609 1 362.754V432C1 441.676 16 441.676 16 432V370.254H164.016V497H16V468C16 458.324 1 458.324 1 468V504.5C1 508.641 4.35547 512 8.5 512H430.496C440.172 512 440.172 497 430.496 497H420.609V268.75C420.609 266.535 419.629 264.434 417.934 263.008L399.164 247.23C399.633 246.254 399.902 245.16 399.902 244V168.5C399.902 158.824 384.902 158.824 384.902 168.5V235.246L365.516 218.953V137.5H478.047V497H468.496C458.82 497 458.82 512 468.496 512H485.547C489.691 512 493.047 508.641 493.047 504.5V137H504.492C509.469 137 513.25 131.758 511.562 126.992ZM187.688 15H264.469V49H187.688V15ZM64.5391 77.1836L115.477 51.6875V113.539H64.5391V77.1836ZM35.1914 355.254V128.539H55.957C56.3125 128.59 56.6719 128.629 57.0391 128.629H122.977C123.348 128.629 123.707 128.59 124.062 128.539H144.828V355.254H35.1914ZM405.609 497H306.684V262C306.684 257.859 303.328 254.5 299.184 254.5C295.039 254.5 291.684 257.859 291.684 262V497H179.016V362.754C179.016 358.609 175.66 355.254 171.516 355.254H160.477V64H291.684V224C291.684 228.141 295.039 231.5 299.184 231.5C303.328 231.5 306.684 228.141 306.684 224V189.102L405.609 272.242V497ZM405.242 44.5H434.324L461.961 91H380.887L405.242 44.5ZM349.691 122L355.371 106H488.195L493.875 122H349.691Z" fill="black"/>
<path d="M451.418 276.5C441.766 276.5 441.75 291.5 451.418 291.5C461.07 291.5 461.086 276.5 451.418 276.5Z" fill="black"/>
<path d="M451.418 312.699C441.766 312.699 441.75 327.699 451.418 327.699C461.07 327.699 461.086 312.699 451.418 312.699Z" fill="black"/>
<path d="M451.418 348.898C441.766 348.898 441.75 363.898 451.418 363.898C461.07 363.898 461.086 348.898 451.418 348.898Z" fill="black"/>
<path d="M451.418 385.102C441.766 385.102 441.75 400.102 451.418 400.102C461.07 400.102 461.086 385.102 451.418 385.102Z" fill="black"/>
<path d="M451.418 421.301C441.766 421.301 441.75 436.301 451.418 436.301C461.07 436.301 461.086 421.301 451.418 421.301Z" fill="black"/>
<path d="M451.418 457.5C441.766 457.5 441.75 472.5 451.418 472.5C461.07 472.5 461.086 457.5 451.418 457.5Z" fill="black"/>
</svg>
