<svg width="75" height="75" viewBox="0 0 75 75" fill="none" xmlns="http://www.w3.org/2000/svg">
<path fill-rule="evenodd" clip-rule="evenodd" d="M19.5969 24.9492C20.3653 25.2033 21.1939 24.7867 21.4474 24.0183C23.7471 17.0631 30.217 12.3905 37.5475 12.3905C46.8956 12.3905 54.5014 19.9957 54.5014 29.3444C54.5014 36.5696 51.265 40.8863 48.6649 44.355C46.7732 46.8778 45.1395 49.0574 45.1395 51.7004C45.1395 51.8743 45.1372 52.0466 45.1332 52.2177H39.0123V48.8525C39.0123 48.0434 38.3566 47.3877 37.5475 47.3877C36.7384 47.3877 36.0827 48.0434 36.0827 48.8525V52.2177H29.9612C29.9572 52.0466 29.9549 51.8743 29.9549 51.7004C29.9549 49.0568 28.3213 46.8778 26.4296 44.3544C24.5144 41.7995 22.344 38.9036 21.2677 34.7889C21.0629 34.0061 20.2618 33.5375 19.4796 33.7423C18.6974 33.9466 18.2287 34.7477 18.4336 35.5299C19.6552 40.2008 22.1117 43.4784 24.0858 46.1117C25.728 48.3026 27.0252 50.033 27.0252 51.7004C27.0252 52.4019 27.055 53.0863 27.1128 53.7392V66.1297C27.1128 66.1692 27.1156 66.2075 27.1185 66.2458C27.1196 66.255 27.1191 66.2647 27.1202 66.2739C27.1254 66.3282 27.1339 66.3809 27.1448 66.4335V66.4347C27.6535 68.8207 28.9558 70.9905 30.8132 72.5441C32.7061 74.1279 35.0979 75 37.5475 75C39.9971 75 42.3884 74.1279 44.2818 72.5441C46.1386 70.9905 47.4415 68.8207 47.9496 66.4347C47.9496 66.4341 47.9502 66.4335 47.9502 66.4329C47.9611 66.3809 47.9691 66.3282 47.9748 66.2739C47.9754 66.2647 47.9754 66.255 47.9759 66.2458C47.9788 66.2069 47.9817 66.1686 47.9817 66.1291V53.7392C48.0394 53.0863 48.0698 52.4019 48.0698 51.7004C48.0698 50.033 49.367 48.3026 51.0092 46.1117C53.7191 42.4965 57.431 37.5458 57.431 29.3444C57.431 18.3803 48.5109 9.46082 37.5475 9.46082C28.9507 9.46082 21.3633 14.9414 18.6659 23.0987C18.4118 23.8666 18.829 24.6952 19.5969 24.9492ZM37.5475 72.0703C34.5692 72.0703 31.8832 70.269 30.6107 67.5939H44.4843C43.2112 70.269 40.5253 72.0703 37.5475 72.0703ZM45.0525 64.6643H30.0425V61.3706H45.0525V64.6643ZM45.0525 58.441H30.0425V55.1473H45.0525V58.441Z" fill="black"/>
<path fill-rule="evenodd" clip-rule="evenodd" d="M37.5475 6.8327C38.3566 6.8327 39.0123 6.17695 39.0123 5.36785V1.46484C39.0123 0.655746 38.3566 0 37.5475 0C36.7384 0 36.0826 0.655746 36.0826 1.46484V5.36785C36.0826 6.17695 36.7384 6.8327 37.5475 6.8327Z" fill="black"/>
<path fill-rule="evenodd" clip-rule="evenodd" d="M9.66797 30.8092H13.571C14.3801 30.8092 15.0358 30.1535 15.0358 29.3444C15.0358 28.5353 14.3801 27.8795 13.571 27.8795H9.66797C8.85887 27.8795 8.20312 28.5353 8.20312 29.3444C8.20312 30.1535 8.85887 30.8092 9.66797 30.8092Z" fill="black"/>
<path fill-rule="evenodd" clip-rule="evenodd" d="M44.2543 32.3038C44.2543 31.4947 43.5986 30.839 42.7895 30.839H32.3055C31.4964 30.839 30.8407 31.4947 30.8407 32.3038C30.8407 33.1129 31.4964 33.7686 32.3055 33.7686H36.0827V37.1338C36.0827 37.9429 36.7384 38.5986 37.5475 38.5986C38.3566 38.5986 39.0124 37.9429 39.0124 37.1338V33.7686H42.7895C43.5986 33.7686 44.2543 33.1129 44.2543 32.3038Z" fill="black"/>
<path fill-rule="evenodd" clip-rule="evenodd" d="M19.5579 13.4262C19.844 13.7123 20.2188 13.8554 20.5936 13.8554C20.9684 13.8554 21.3432 13.7123 21.6293 13.4262C22.2015 12.854 22.2015 11.9265 21.6293 11.3548L18.8696 8.59508C18.2974 8.02287 17.3698 8.02287 16.7976 8.59508C16.226 9.16671 16.226 10.0943 16.7976 10.6665L19.5579 13.4262Z" fill="black"/>
<path fill-rule="evenodd" clip-rule="evenodd" d="M16.8234 51.5333C17.1982 51.5333 17.573 51.3903 17.8591 51.1041L20.6188 48.3444C21.191 47.7722 21.191 46.8452 20.6188 46.273C20.0466 45.7008 19.1191 45.7008 18.5474 46.273L15.7871 49.0328C15.2155 49.605 15.2155 50.5325 15.7871 51.1041C16.0732 51.3903 16.448 51.5333 16.8234 51.5333Z" fill="black"/>
<path fill-rule="evenodd" clip-rule="evenodd" d="M54.5014 13.8554C54.8761 13.8554 55.2509 13.7123 55.537 13.4262L58.2968 10.6665C58.869 10.0943 58.869 9.16673 58.2968 8.59453C57.7252 8.02232 56.7976 8.02289 56.2254 8.59453L53.4657 11.3543C52.8935 11.9265 52.8935 12.854 53.4651 13.4262C53.7512 13.7123 54.1266 13.8554 54.5014 13.8554Z" fill="black"/>
<path fill-rule="evenodd" clip-rule="evenodd" d="M54.4762 46.273C53.9039 46.8447 53.9039 47.7722 54.4762 48.3444L57.2359 51.1041C57.522 51.3903 57.8968 51.5333 58.2716 51.5333C58.6464 51.5333 59.0212 51.3903 59.3073 51.1041C59.8795 50.5325 59.8795 49.605 59.3073 49.0328L56.5475 46.273C55.9753 45.7008 55.0478 45.7008 54.4762 46.273Z" fill="black"/>
<path fill-rule="evenodd" clip-rule="evenodd" d="M61.524 30.8092H65.427C66.2361 30.8092 66.8918 30.1535 66.8918 29.3444C66.8918 28.5353 66.2361 27.8795 65.427 27.8795H61.524C60.7149 27.8795 60.0591 28.5353 60.0591 29.3444C60.0591 30.1535 60.7149 30.8092 61.524 30.8092Z" fill="black"/>
<path fill-rule="evenodd" clip-rule="evenodd" d="M37.5475 41.5283C36.7407 41.5283 36.0826 42.1864 36.0826 42.9932C36.0826 43.8 36.7407 44.458 37.5475 44.458C38.3543 44.458 39.0123 43.8 39.0123 42.9932C39.0123 42.1864 38.3543 41.5283 37.5475 41.5283Z" fill="black"/>
<path fill-rule="evenodd" clip-rule="evenodd" d="M20.5936 29.3444C20.5936 28.5376 19.9356 27.8795 19.1288 27.8795C18.3214 27.8795 17.6639 28.5376 17.6639 29.3444C17.6639 30.1512 18.3214 30.8092 19.1288 30.8092C19.9356 30.8092 20.5936 30.1512 20.5936 29.3444Z" fill="black"/>
</svg>
